<svg width="118" height="20" viewBox="0 0 118 20" fill="none" xmlns="http://www.w3.org/2000/svg">
<path d="M105.632 20V7.44444C105.632 7 105.297 6.55556 104.74 6.55556C104.295 6.55556 103.849 6.88889 103.849 7.44444V20H98.1662V6.55556C98.1662 2.88889 101.175 0 104.74 0C108.306 0 111.314 2.88889 111.314 6.55556V20H105.632ZM95.0463 14.3333H97.0519V20H85.6865C83.1237 20 81.118 18 81.118 15.4444V4.55556C81.118 2 83.1237 0 85.6865 0H97.0519V5.66667H95.0463V14.3333ZM90.0321 14.3333V5.66667H88.0264C87.3579 5.66667 86.9122 6.22222 86.9122 6.77778V13.1111C86.9122 13.7778 87.4693 14.2222 88.0264 14.2222L90.0321 14.3333ZM21.6166 3.66667V2.88889C21.6166 1.33333 22.8423 0 24.4023 0C25.9622 0 27.1879 1.33333 27.1879 2.88889V20H21.5052V16.3333H17.6053C15.8225 18.5556 13.0368 20 9.9169 20C4.45703 20 0 15.5556 0 10C0 4.44444 4.45703 0 9.9169 0C13.0368 0 15.8225 1.44444 17.6053 3.66667H21.6166ZM19.8338 8.88889C19.8338 9.22222 19.9452 9.66667 19.9452 10C19.9452 10.3333 19.9452 10.7778 19.8338 11.1111H21.6166V8.88889H19.8338ZM9.9169 14.5556C12.4797 14.5556 14.4854 12.5556 14.4854 10C14.4854 7.44444 12.4797 5.44444 9.9169 5.44444C7.35411 5.44444 5.34844 7.44444 5.34844 10C5.34844 12.5556 7.46553 14.5556 9.9169 14.5556ZM42.6761 1.33333C43.4561 2.11111 44.0132 3.33333 44.0132 4.55556V20H38.3305V6.88889C38.3305 6.22222 37.7734 5.77778 37.2162 5.77778H30.9764C29.4164 5.77778 28.1907 4.44444 28.1907 2.88889C28.1907 1.33333 29.4164 0 30.9764 0H39.4448C40.6704 0 41.8961 0.555556 42.6761 1.33333ZM48.0246 0C49.5845 0 50.8102 1.33333 50.8102 2.88889V20H45.1275V2.88889C45.1275 1.33333 46.3532 0 48.0246 0ZM73.7639 7.11111V2.88889C73.7639 1.33333 74.9896 0 76.5496 0C78.1095 0 79.3352 1.33333 79.3352 2.88889V20H73.6525V12.8889H71.5354C70.3097 17 66.5212 20 62.0642 20C56.6043 20 52.1473 15.5556 52.1473 10C52.1473 4.44444 56.6043 0 62.0642 0C66.5212 0 70.3097 3 71.5354 7.11111H73.7639ZM62.1756 14.5556C64.7384 14.5556 66.7441 12.5556 66.7441 10C66.7441 7.44444 64.627 5.44444 62.1756 5.44444C59.7243 5.44444 57.6072 7.44444 57.6072 10C57.6072 12.5556 59.6128 14.5556 62.1756 14.5556ZM115.214 20C113.654 20 112.429 18.6667 112.429 17.1111C112.429 15.5556 113.654 14.2222 115.214 14.2222C116.774 14.2222 118 15.5556 118 17.1111C118 18.6667 116.774 20 115.214 20Z" fill="#BBBBBB"/>
</svg>
